{
	"asset":{
		"generator":"Khronos glTF Blender I/O v4.1.63",
		"version":"2.0"
	},
	"scene":0,
	"scenes":[
		{
			"name":"Scene",
			"nodes":[
				0,
				1
			]
		}
	],
	"nodes":[
		{
			"mesh":0,
			"name":"Seats.001",
			"rotation":[
				0.7071068286895752,
				0,
				0,
				0.7071068286895752
			],
			"translation":[
				-0.8953700065612793,
				-1.628086805343628,
				-17.708086013793945
			]
		},
		{
			"mesh":1,
			"name":"Seats.072",
			"rotation":[
				0.7071068286895752,
				0,
				0,
				0.7071068286895752
			],
			"translation":[
				1.3078827857971191,
				-1.4697797298431396,
				-17.870223999023438
			]
		}
	],
	"materials":[
		{
			"doubleSided":true,
			"name":"Seat.006",
			"pbrMetallicRoughness":{
				"baseColorFactor":[
					0.125573992729187,
					0.17219099402427673,
					0.29038700461387634,
					1
				],
				"metallicFactor":0,
				"roughnessFactor":0.5
			}
		},
		{
			"doubleSided":true,
			"name":"Seat.007",
			"pbrMetallicRoughness":{
				"baseColorFactor":[
					0.125573992729187,
					0.17219099402427673,
					0.29038700461387634,
					1
				],
				"metallicFactor":0,
				"roughnessFactor":0.5
			}
		}
	],
	"meshes":[
		{
			"name":"Seats.072",
			"primitives":[
				{
					"attributes":{
						"POSITION":0,
						"NORMAL":1
					},
					"indices":2,
					"material":0
				}
			]
		},
		{
			"name":"Seats.001",
			"primitives":[
				{
					"attributes":{
						"POSITION":3,
						"NORMAL":4
					},
					"indices":2,
					"material":1
				}
			]
		}
	],
	"accessors":[
		{
			"bufferView":0,
			"componentType":5126,
			"count":129,
			"max":[
				0.7498549818992615,
				19.930648803710938,
				-4.9589362144470215
			],
			"min":[
				-0.7912139892578125,
				18.141937255859375,
				-7.428534030914307
			],
			"type":"VEC3"
		},
		{
			"bufferView":1,
			"componentType":5126,
			"count":129,
			"type":"VEC3"
		},
		{
			"bufferView":2,
			"componentType":5123,
			"count":234,
			"type":"SCALAR"
		},
		{
			"bufferView":3,
			"componentType":5126,
			"count":129,
			"max":[
				0.7498549818992615,
				19.930648803710938,
				-4.9589362144470215
			],
			"min":[
				-0.7912139892578125,
				18.141937255859375,
				-7.428534030914307
			],
			"type":"VEC3"
		},
		{
			"bufferView":4,
			"componentType":5126,
			"count":129,
			"type":"VEC3"
		}
	],
	"bufferViews":[
		{
			"buffer":0,
			"byteLength":1548,
			"byteOffset":0,
			"target":34962
		},
		{
			"buffer":0,
			"byteLength":1548,
			"byteOffset":1548,
			"target":34962
		},
		{
			"buffer":0,
			"byteLength":468,
			"byteOffset":3096,
			"target":34963
		},
		{
			"buffer":0,
			"byteLength":1548,
			"byteOffset":3564,
			"target":34962
		},
		{
			"buffer":0,
			"byteLength":1548,
			"byteOffset":5112,
			"target":34962
		}
	],
	"buffers":[
		{
			"byteLength":6660,
			"uri":"scene.bin"
		}
	]
}
