{
	"asset":{
		"generator":"Khronos glTF Blender I/O v4.1.63",
		"version":"2.0"
	},
	"extensionsUsed":[
		"KHR_materials_specular",
		"KHR_materials_emissive_strength"
	],
	"scene":0,
	"scenes":[
		{
			"name":"Scene",
			"nodes":[
				22
			]
		}
	],
	"nodes":[
		{
			"name":"Destroyed Plane_0",
			"rotation":[
				0.02686883881688118,
				0.7065961360931396,
				0.026868833228945732,
				0.7065961360931396
			],
			"scale":[
				0.23981595039367676,
				0.06227601319551468,
				0.3184064030647278
			],
			"translation":[
				40.907081604003906,
				0.6322618722915649,
				-17.033817291259766
			]
		},
		{
			"mesh":0,
			"name":"Object_35"
		},
		{
			"mesh":1,
			"name":"Object_36"
		},
		{
			"mesh":2,
			"name":"Object_37"
		},
		{
			"mesh":3,
			"name":"Object_38"
		},
		{
			"mesh":4,
			"name":"Object_39"
		},
		{
			"children":[
				1,
				2,
				3,
				4,
				5
			],
			"name":"Front of Plane_6",
			"rotation":[
				0.7054994702339172,
				-0.04764975234866142,
				-0.04764976352453232,
				0.7054994702339172
			],
			"scale":[
				1.6165237426757812,
				2.1194210052490234,
				1.6165237426757812
			],
			"translation":[
				0.010844903998076916,
				-0.3071305751800537,
				15.020357131958008
			]
		},
		{
			"mesh":5,
			"name":"Object_12",
			"translation":[
				5.557368240260985e-06,
				0,
				0
			]
		},
		{
			"mesh":6,
			"name":"Object_13",
			"translation":[
				5.557368240260985e-06,
				0,
				0
			]
		},
		{
			"mesh":7,
			"name":"Object_14",
			"translation":[
				5.557368240260985e-06,
				0,
				0
			]
		},
		{
			"children":[
				7,
				8,
				9
			],
			"name":"Plane Back_1",
			"rotation":[
				0.02686883881688118,
				0.7065961360931396,
				0.026868833228945732,
				0.7065961360931396
			],
			"scale":[
				0.23981595039367676,
				0.06227601319551468,
				0.3184064030647278
			],
			"translation":[
				0.0027175545692443848,
				0.6322618722915649,
				-17.033817291259766
			]
		},
		{
			"mesh":8,
			"name":"Object_16"
		},
		{
			"mesh":9,
			"name":"Object_17"
		},
		{
			"mesh":10,
			"name":"Object_18"
		},
		{
			"mesh":11,
			"name":"Object_19"
		},
		{
			"mesh":12,
			"name":"Object_20"
		},
		{
			"children":[
				11,
				12,
				13,
				14,
				15
			],
			"name":"Plane Body_2",
			"rotation":[
				0,
				0,
				0.037998270243406296,
				0.9992778301239014
			],
			"scale":[
				0.23981593549251556,
				0.06227601319551468,
				0.3184063732624054
			],
			"translation":[
				-0.014651060104370117,
				-0.5332199931144714,
				-0.45983123779296875
			]
		},
		{
			"mesh":13,
			"name":"Object_32"
		},
		{
			"mesh":14,
			"name":"Object_33"
		},
		{
			"children":[
				17,
				18
			],
			"name":"Plane Door_5",
			"rotation":[
				0.7054994702339172,
				-0.04764975234866142,
				-0.04764976352453232,
				0.7054994702339172
			],
			"scale":[
				1.6165237426757812,
				2.1194210052490234,
				1.6165237426757812
			],
			"translation":[
				1.7591127157211304,
				0.08894985914230347,
				10.1669282913208
			]
		},
		{
			"children":[
				0,
				6,
				10,
				16,
				19
			],
			"name":"GLTF_SceneRootNode",
			"rotation":[
				0.70710688829422,
				0,
				0,
				0.7071066498756409
			]
		},
		{
			"children":[
				20
			],
			"name":"root"
		},
		{
			"children":[
				21
			],
			"name":"Sketchfab_model",
			"rotation":[
				-0.70710688829422,
				0,
				0,
				0.7071066498756409
			]
		}
	],
	"materials":[
		{
			"doubleSided":true,
			"extensions":{
				"KHR_materials_specular":{
					"specularFactor":0
				}
			},
			"name":"Plane.002",
			"pbrMetallicRoughness":{
				"baseColorFactor":[
					0.800000011920929,
					0.800000011920929,
					0.800000011920929,
					1
				],
				"metallicFactor":0.2631574869155884,
				"roughnessFactor":0.25
			}
		},
		{
			"alphaMode":"BLEND",
			"doubleSided":true,
			"name":"Window.002",
			"pbrMetallicRoughness":{
				"baseColorFactor":[
					0.28523939847946167,
					0.4790497422218323,
					0.605328381061554,
					0.43340232968330383
				],
				"metallicFactor":0.2509971559047699,
				"roughnessFactor":0
			}
		},
		{
			"doubleSided":true,
			"name":"Pilot_Seat.002",
			"pbrMetallicRoughness":{
				"baseColorFactor":[
					0.20195968449115753,
					0.20195968449115753,
					0.20195968449115753,
					1
				],
				"metallicFactor":0,
				"roughnessFactor":0
			}
		},
		{
			"doubleSided":true,
			"name":"Metal.002",
			"pbrMetallicRoughness":{
				"baseColorFactor":[
					0.06315964460372925,
					0.06315964460372925,
					0.06315964460372925,
					1
				],
				"roughnessFactor":0.19019541144371033
			}
		},
		{
			"doubleSided":true,
			"emissiveFactor":[
				0.012897996782612579,
				1,
				0
			],
			"extensions":{
				"KHR_materials_emissive_strength":{
					"emissiveStrength":9.022800922393799
				}
			},
			"name":"Screen.002",
			"pbrMetallicRoughness":{
				"baseColorFactor":[
					0.1378841996192932,
					1,
					0,
					1
				],
				"metallicFactor":0,
				"roughnessFactor":0.5
			}
		},
		{
			"doubleSided":true,
			"name":"Light_Metal.002",
			"pbrMetallicRoughness":{
				"baseColorFactor":[
					0.3310827314853668,
					0.3310827314853668,
					0.3310827314853668,
					1
				],
				"metallicFactor":0.7009299397468567,
				"roughnessFactor":0
			}
		},
		{
			"doubleSided":true,
			"name":"Seat.002",
			"pbrMetallicRoughness":{
				"baseColorFactor":[
					0.12557350099086761,
					0.17219118773937225,
					0.2903871536254883,
					1
				],
				"metallicFactor":0,
				"roughnessFactor":0.5
			}
		}
	],
	"meshes":[
		{
			"name":"Object_25.002",
			"primitives":[
				{
					"attributes":{
						"POSITION":0,
						"NORMAL":1
					},
					"indices":2,
					"material":0
				}
			]
		},
		{
			"name":"Object_26.002",
			"primitives":[
				{
					"attributes":{
						"POSITION":3,
						"NORMAL":4
					},
					"indices":5,
					"material":1
				}
			]
		},
		{
			"name":"Object_27.002",
			"primitives":[
				{
					"attributes":{
						"POSITION":6,
						"NORMAL":7
					},
					"indices":8,
					"material":2
				}
			]
		},
		{
			"name":"Object_28.002",
			"primitives":[
				{
					"attributes":{
						"POSITION":9,
						"NORMAL":10
					},
					"indices":11,
					"material":3
				}
			]
		},
		{
			"name":"Object_29.002",
			"primitives":[
				{
					"attributes":{
						"POSITION":12,
						"NORMAL":13
					},
					"indices":14,
					"material":4
				}
			]
		},
		{
			"name":"Object_7.002",
			"primitives":[
				{
					"attributes":{
						"POSITION":15,
						"NORMAL":16
					},
					"indices":17,
					"material":0
				}
			]
		},
		{
			"name":"Object_8.002",
			"primitives":[
				{
					"attributes":{
						"POSITION":18,
						"NORMAL":19
					},
					"indices":20,
					"material":3
				}
			]
		},
		{
			"name":"Object_9.002",
			"primitives":[
				{
					"attributes":{
						"POSITION":21,
						"NORMAL":22
					},
					"indices":23,
					"material":5
				}
			]
		},
		{
			"name":"Object_10.002",
			"primitives":[
				{
					"attributes":{
						"POSITION":24,
						"NORMAL":25
					},
					"indices":26,
					"material":0
				}
			]
		},
		{
			"name":"Object_11.002",
			"primitives":[
				{
					"attributes":{
						"POSITION":27,
						"NORMAL":28
					},
					"indices":29,
					"material":6
				}
			]
		},
		{
			"name":"Object_12.002",
			"primitives":[
				{
					"attributes":{
						"POSITION":30,
						"NORMAL":31
					},
					"indices":32,
					"material":1
				}
			]
		},
		{
			"name":"Object_13.002",
			"primitives":[
				{
					"attributes":{
						"POSITION":33,
						"NORMAL":34
					},
					"indices":35,
					"material":3
				}
			]
		},
		{
			"name":"Object_14.002",
			"primitives":[
				{
					"attributes":{
						"POSITION":36,
						"NORMAL":37
					},
					"indices":38,
					"material":5
				}
			]
		},
		{
			"name":"Object_23.002",
			"primitives":[
				{
					"attributes":{
						"POSITION":39,
						"NORMAL":40
					},
					"indices":41,
					"material":0
				}
			]
		},
		{
			"name":"Object_24.002",
			"primitives":[
				{
					"attributes":{
						"POSITION":42,
						"NORMAL":43
					},
					"indices":44,
					"material":1
				}
			]
		}
	],
	"accessors":[
		{
			"bufferView":0,
			"componentType":5126,
			"count":1141,
			"max":[
				1.1618701219558716,
				1.7487030029296875,
				1.1542788743972778
			],
			"min":[
				-1.2075486183166504,
				-0.964630126953125,
				-1.2081555128097534
			],
			"type":"VEC3"
		},
		{
			"bufferView":1,
			"componentType":5126,
			"count":1141,
			"type":"VEC3"
		},
		{
			"bufferView":2,
			"componentType":5123,
			"count":1617,
			"type":"SCALAR"
		},
		{
			"bufferView":3,
			"componentType":5126,
			"count":32,
			"max":[
				0.8682456612586975,
				0.5549554824829102,
				-0.36386895179748535
			],
			"min":[
				-1.0122274160385132,
				0.02114391326904297,
				-1.15761137008667
			],
			"type":"VEC3"
		},
		{
			"bufferView":4,
			"componentType":5126,
			"count":32,
			"type":"VEC3"
		},
		{
			"bufferView":5,
			"componentType":5123,
			"count":48,
			"type":"SCALAR"
		},
		{
			"bufferView":6,
			"componentType":5126,
			"count":432,
			"max":[
				1.017195463180542,
				0.506861686706543,
				0.5565962195396423
			],
			"min":[
				-1.05820894241333,
				-0.49231863021850586,
				-0.5718387961387634
			],
			"type":"VEC3"
		},
		{
			"bufferView":7,
			"componentType":5126,
			"count":432,
			"type":"VEC3"
		},
		{
			"bufferView":8,
			"componentType":5123,
			"count":660,
			"type":"SCALAR"
		},
		{
			"bufferView":9,
			"componentType":5126,
			"count":48,
			"max":[
				0.9348723888397217,
				1.4462432861328125,
				0.49276983737945557
			],
			"min":[
				-0.9520249366760254,
				0.04829692840576172,
				-0.560016930103302
			],
			"type":"VEC3"
		},
		{
			"bufferView":10,
			"componentType":5126,
			"count":48,
			"type":"VEC3"
		},
		{
			"bufferView":11,
			"componentType":5123,
			"count":72,
			"type":"SCALAR"
		},
		{
			"bufferView":12,
			"componentType":5126,
			"count":20,
			"max":[
				0.8321739435195923,
				0.436767578125,
				-0.05122075602412224
			],
			"min":[
				-0.8743484020233154,
				0.07876920700073242,
				-0.42491239309310913
			],
			"type":"VEC3"
		},
		{
			"bufferView":13,
			"componentType":5126,
			"count":20,
			"type":"VEC3"
		},
		{
			"bufferView":14,
			"componentType":5123,
			"count":30,
			"type":"SCALAR"
		},
		{
			"bufferView":15,
			"componentType":5126,
			"count":1008,
			"max":[
				17.095844268798828,
				69.59837341308594,
				10.916499137878418
			],
			"min":[
				-14.583892822265625,
				-40.28683853149414,
				-11.021750450134277
			],
			"type":"VEC3"
		},
		{
			"bufferView":16,
			"componentType":5126,
			"count":1008,
			"type":"VEC3"
		},
		{
			"bufferView":17,
			"componentType":5123,
			"count":1521,
			"type":"SCALAR"
		},
		{
			"bufferView":18,
			"componentType":5126,
			"count":4,
			"max":[
				-9.832792282104492,
				-17.18341064453125,
				-2.3338842391967773
			],
			"min":[
				-10.936044692993164,
				-17.18341064453125,
				-3.1765737533569336
			],
			"type":"VEC3"
		},
		{
			"bufferView":19,
			"componentType":5126,
			"count":4,
			"type":"VEC3"
		},
		{
			"bufferView":20,
			"componentType":5123,
			"count":6,
			"type":"SCALAR"
		},
		{
			"bufferView":21,
			"componentType":5126,
			"count":336,
			"max":[
				-8.981889724731445,
				-1.6385650634765625,
				4.122513294219971
			],
			"min":[
				-11.77975082397461,
				-9.843770027160645,
				2.363737106323242
			],
			"type":"VEC3"
		},
		{
			"bufferView":22,
			"componentType":5126,
			"count":336,
			"type":"VEC3"
		},
		{
			"bufferView":23,
			"componentType":5123,
			"count":498,
			"type":"SCALAR"
		},
		{
			"bufferView":24,
			"componentType":5126,
			"count":10060,
			"max":[
				77.59607696533203,
				34.94830322265625,
				42.613826751708984
			],
			"min":[
				-77.68370056152344,
				-52.33591079711914,
				-41.850650787353516
			],
			"type":"VEC3"
		},
		{
			"bufferView":25,
			"componentType":5126,
			"count":10060,
			"type":"VEC3"
		},
		{
			"bufferView":26,
			"componentType":5123,
			"count":17112,
			"type":"SCALAR"
		},
		{
			"bufferView":27,
			"componentType":5126,
			"count":3050,
			"max":[
				6.527894973754883,
				15.869513511657715,
				40.04829025268555
			],
			"min":[
				-6.1501336097717285,
				1.9307036399841309,
				-36.233341217041016
			],
			"type":"VEC3"
		},
		{
			"bufferView":28,
			"componentType":5126,
			"count":3050,
			"type":"VEC3"
		},
		{
			"bufferView":29,
			"componentType":5123,
			"count":4524,
			"type":"SCALAR"
		},
		{
			"bufferView":30,
			"componentType":5126,
			"count":462,
			"max":[
				8.113813400268555,
				24.223596572875977,
				39.973575592041016
			],
			"min":[
				-7.7437615394592285,
				6.1002068519592285,
				-36.57168960571289
			],
			"type":"VEC3"
		},
		{
			"bufferView":31,
			"componentType":5126,
			"count":462,
			"type":"VEC3"
		},
		{
			"bufferView":32,
			"componentType":5123,
			"count":690,
			"type":"SCALAR"
		},
		{
			"bufferView":33,
			"componentType":5126,
			"count":250,
			"max":[
				25.493614196777344,
				-6.424925327301025,
				10.659713745117188
			],
			"min":[
				-27.181074142456055,
				-44.23915100097656,
				-2.416351318359375
			],
			"type":"VEC3"
		},
		{
			"bufferView":34,
			"componentType":5126,
			"count":250,
			"type":"VEC3"
		},
		{
			"bufferView":35,
			"componentType":5123,
			"count":294,
			"type":"SCALAR"
		},
		{
			"bufferView":36,
			"componentType":5126,
			"count":238,
			"max":[
				23.811185836791992,
				-12.63952922821045,
				11.58843994140625
			],
			"min":[
				-25.544466018676758,
				-37.889556884765625,
				-3.347135543823242
			],
			"type":"VEC3"
		},
		{
			"bufferView":37,
			"componentType":5126,
			"count":238,
			"type":"VEC3"
		},
		{
			"bufferView":38,
			"componentType":5123,
			"count":294,
			"type":"SCALAR"
		},
		{
			"bufferView":39,
			"componentType":5126,
			"count":176,
			"max":[
				0.13364839553833008,
				0.19838953018188477,
				0.599670946598053
			],
			"min":[
				-0.37504392862319946,
				-0.1983180046081543,
				-0.5368155241012573
			],
			"type":"VEC3"
		},
		{
			"bufferView":40,
			"componentType":5126,
			"count":176,
			"type":"VEC3"
		},
		{
			"bufferView":41,
			"componentType":5123,
			"count":252,
			"type":"SCALAR"
		},
		{
			"bufferView":42,
			"componentType":5126,
			"count":8,
			"max":[
				0.05845797061920166,
				0.15350675582885742,
				0.019359078258275986
			],
			"min":[
				-0.3441101908683777,
				-0.15358400344848633,
				-0.4929805099964142
			],
			"type":"VEC3"
		},
		{
			"bufferView":43,
			"componentType":5126,
			"count":8,
			"type":"VEC3"
		},
		{
			"bufferView":44,
			"componentType":5123,
			"count":12,
			"type":"SCALAR"
		}
	],
	"bufferViews":[
		{
			"buffer":0,
			"byteLength":13692,
			"byteOffset":0,
			"target":34962
		},
		{
			"buffer":0,
			"byteLength":13692,
			"byteOffset":13692,
			"target":34962
		},
		{
			"buffer":0,
			"byteLength":3234,
			"byteOffset":27384,
			"target":34963
		},
		{
			"buffer":0,
			"byteLength":384,
			"byteOffset":30620,
			"target":34962
		},
		{
			"buffer":0,
			"byteLength":384,
			"byteOffset":31004,
			"target":34962
		},
		{
			"buffer":0,
			"byteLength":96,
			"byteOffset":31388,
			"target":34963
		},
		{
			"buffer":0,
			"byteLength":5184,
			"byteOffset":31484,
			"target":34962
		},
		{
			"buffer":0,
			"byteLength":5184,
			"byteOffset":36668,
			"target":34962
		},
		{
			"buffer":0,
			"byteLength":1320,
			"byteOffset":41852,
			"target":34963
		},
		{
			"buffer":0,
			"byteLength":576,
			"byteOffset":43172,
			"target":34962
		},
		{
			"buffer":0,
			"byteLength":576,
			"byteOffset":43748,
			"target":34962
		},
		{
			"buffer":0,
			"byteLength":144,
			"byteOffset":44324,
			"target":34963
		},
		{
			"buffer":0,
			"byteLength":240,
			"byteOffset":44468,
			"target":34962
		},
		{
			"buffer":0,
			"byteLength":240,
			"byteOffset":44708,
			"target":34962
		},
		{
			"buffer":0,
			"byteLength":60,
			"byteOffset":44948,
			"target":34963
		},
		{
			"buffer":0,
			"byteLength":12096,
			"byteOffset":45008,
			"target":34962
		},
		{
			"buffer":0,
			"byteLength":12096,
			"byteOffset":57104,
			"target":34962
		},
		{
			"buffer":0,
			"byteLength":3042,
			"byteOffset":69200,
			"target":34963
		},
		{
			"buffer":0,
			"byteLength":48,
			"byteOffset":72244,
			"target":34962
		},
		{
			"buffer":0,
			"byteLength":48,
			"byteOffset":72292,
			"target":34962
		},
		{
			"buffer":0,
			"byteLength":12,
			"byteOffset":72340,
			"target":34963
		},
		{
			"buffer":0,
			"byteLength":4032,
			"byteOffset":72352,
			"target":34962
		},
		{
			"buffer":0,
			"byteLength":4032,
			"byteOffset":76384,
			"target":34962
		},
		{
			"buffer":0,
			"byteLength":996,
			"byteOffset":80416,
			"target":34963
		},
		{
			"buffer":0,
			"byteLength":120720,
			"byteOffset":81412,
			"target":34962
		},
		{
			"buffer":0,
			"byteLength":120720,
			"byteOffset":202132,
			"target":34962
		},
		{
			"buffer":0,
			"byteLength":34224,
			"byteOffset":322852,
			"target":34963
		},
		{
			"buffer":0,
			"byteLength":36600,
			"byteOffset":357076,
			"target":34962
		},
		{
			"buffer":0,
			"byteLength":36600,
			"byteOffset":393676,
			"target":34962
		},
		{
			"buffer":0,
			"byteLength":9048,
			"byteOffset":430276,
			"target":34963
		},
		{
			"buffer":0,
			"byteLength":5544,
			"byteOffset":439324,
			"target":34962
		},
		{
			"buffer":0,
			"byteLength":5544,
			"byteOffset":444868,
			"target":34962
		},
		{
			"buffer":0,
			"byteLength":1380,
			"byteOffset":450412,
			"target":34963
		},
		{
			"buffer":0,
			"byteLength":3000,
			"byteOffset":451792,
			"target":34962
		},
		{
			"buffer":0,
			"byteLength":3000,
			"byteOffset":454792,
			"target":34962
		},
		{
			"buffer":0,
			"byteLength":588,
			"byteOffset":457792,
			"target":34963
		},
		{
			"buffer":0,
			"byteLength":2856,
			"byteOffset":458380,
			"target":34962
		},
		{
			"buffer":0,
			"byteLength":2856,
			"byteOffset":461236,
			"target":34962
		},
		{
			"buffer":0,
			"byteLength":588,
			"byteOffset":464092,
			"target":34963
		},
		{
			"buffer":0,
			"byteLength":2112,
			"byteOffset":464680,
			"target":34962
		},
		{
			"buffer":0,
			"byteLength":2112,
			"byteOffset":466792,
			"target":34962
		},
		{
			"buffer":0,
			"byteLength":504,
			"byteOffset":468904,
			"target":34963
		},
		{
			"buffer":0,
			"byteLength":96,
			"byteOffset":469408,
			"target":34962
		},
		{
			"buffer":0,
			"byteLength":96,
			"byteOffset":469504,
			"target":34962
		},
		{
			"buffer":0,
			"byteLength":24,
			"byteOffset":469600,
			"target":34963
		}
	],
	"buffers":[
		{
			"byteLength":469624,
			"uri":"scene.bin"
		}
	]
}
